<?xml version="1.0" encoding="utf-8"?>
<!-- Generator: Adobe Illustrator 16.0.3, SVG Export Plug-In . SVG Version: 6.00 Build 0)  -->
<!DOCTYPE svg PUBLIC "-//W3C//DTD SVG 1.0//EN" "http://www.w3.org/TR/2001/REC-SVG-20010904/DTD/svg10.dtd">
<svg version="1.0" id="Layer_1" xmlns="http://www.w3.org/2000/svg" xmlns:xlink="http://www.w3.org/1999/xlink" x="0px" y="0px"
	 width="263.354px" height="85.039px" viewBox="0 0 263.354 85.039" enable-background="new 0 0 263.354 85.039"
	 xml:space="preserve">
<g>
	<path d="M126.261,61.891l-13.531-19.925l-4.428,4.102v15.823h-4.57V20.611h4.57v20.684l16.318-20.684h5.412l-14.617,18.19
		l16.137,23.089H126.261z"/>
	<path d="M157.784,46.012c0,5.547-1.001,9.678-3.003,12.393c-2.002,2.715-4.907,4.072-8.716,4.072c-1.816,0-3.433-0.333-4.849-0.996
		s-2.617-1.68-3.604-3.047c-0.986-1.367-1.738-3.081-2.256-5.142c-0.518-2.061-0.776-4.487-0.776-7.28
		c0-10.938,3.877-16.406,11.631-16.406c2.012,0,3.755,0.342,5.229,1.025c1.475,0.684,2.681,1.709,3.618,3.076
		c0.938,1.367,1.626,3.076,2.065,5.127S157.784,43.277,157.784,46.012z M153.243,46.012c0-2.461-0.151-4.492-0.454-6.094
		c-0.303-1.601-0.757-2.881-1.362-3.838c-0.605-0.957-1.343-1.626-2.212-2.007s-1.841-0.571-2.915-0.571
		c-1.113,0-2.114,0.201-3.003,0.601c-0.889,0.4-1.646,1.084-2.271,2.051s-1.099,2.251-1.421,3.853
		c-0.322,1.602-0.483,3.604-0.483,6.006c0,2.461,0.176,4.497,0.527,6.108s0.835,2.896,1.45,3.853
		c0.615,0.957,1.343,1.631,2.183,2.021c0.84,0.391,1.758,0.586,2.754,0.586c1.113,0,2.114-0.19,3.003-0.571s1.646-1.05,2.271-2.007
		c0.625-0.957,1.104-2.246,1.436-3.867C153.077,50.514,153.243,48.473,153.243,46.012z"/>
	<path d="M166.28,47.154c0,1.66,0.176,3.189,0.527,4.585c0.352,1.396,0.82,2.598,1.406,3.604c0.586,1.006,1.333,1.787,2.241,2.344
		s2.007,0.835,3.296,0.835c1.875,0,3.379-0.458,4.512-1.377c1.133-0.918,1.895-2.08,2.285-3.486l3.809,1.318
		c-0.273,0.879-0.654,1.763-1.143,2.651c-0.488,0.889-1.143,1.689-1.963,2.402c-0.82,0.713-1.841,1.299-3.062,1.758
		s-2.7,0.688-4.438,0.688c-3.848,0-6.777-1.396-8.789-4.189c-2.012-2.793-3.018-6.943-3.018-12.451c0-2.969,0.308-5.483,0.923-7.544
		c0.615-2.061,1.45-3.735,2.505-5.024s2.285-2.222,3.691-2.798c1.406-0.576,2.91-0.864,4.512-0.864c2.188,0,4.014,0.43,5.479,1.289
		c2.832,1.66,4.639,4.629,5.42,8.906c0.371,2.051,0.557,4.268,0.557,6.65v0.703H166.28z M180.694,43.111
		c0-3.535-0.659-6.021-1.978-7.456s-3.052-2.153-5.2-2.153c-1.523,0-3.008,0.645-4.453,1.934c-1.758,1.504-2.686,4.063-2.783,7.676
		H180.694z"/>
	<path d="M207.062,61.891V41.793c0-1.542-0.093-2.832-0.278-3.867c-0.186-1.035-0.488-1.87-0.908-2.505
		c-0.42-0.634-0.972-1.084-1.655-1.348s-1.523-0.396-2.52-0.396c-1.016,0-1.938,0.22-2.769,0.659s-1.538,1.074-2.124,1.904
		c-0.586,0.831-1.04,1.856-1.362,3.076c-0.322,1.221-0.483,2.622-0.483,4.204v18.369h-4.336V36.959v-2.08
		c0-0.742-0.01-1.44-0.029-2.095c-0.02-0.654-0.039-1.216-0.059-1.685s-0.029-0.771-0.029-0.908h4.072
		c0.02,0.098,0.034,0.362,0.044,0.791c0.01,0.43,0.029,0.923,0.059,1.479s0.049,1.124,0.059,1.699c0.01,0.576,0.015,1.06,0.015,1.45
		h0.088c0.41-0.918,0.864-1.748,1.362-2.49c0.498-0.742,1.074-1.372,1.729-1.89c0.654-0.517,1.406-0.918,2.256-1.201
		c0.85-0.283,1.841-0.425,2.974-0.425c1.445,0,2.686,0.215,3.721,0.645c1.035,0.43,1.89,1.094,2.563,1.992
		c0.674,0.898,1.167,2.056,1.479,3.472c0.313,1.417,0.469,3.101,0.469,5.054v21.123H207.062z"/>
	<path d="M229.327,61.891h-5.506l-9.055-31.699h4.592l5.705,20.63l0.354,1.462l0.438,1.808l0.434,1.78l0.342,1.409l0.44-1.525
		l0.521-1.802c0.171-0.636,0.347-1.256,0.528-1.863c0.182-0.606,0.334-1.123,0.456-1.548l5.877-20.351h4.105L229.327,61.891z"/>
	<path d="M246.817,35.611c0.488-1.074,1.011-1.987,1.567-2.739c0.557-0.751,1.172-1.372,1.846-1.86
		c0.674-0.488,1.411-0.845,2.212-1.069c0.801-0.224,1.699-0.337,2.695-0.337c1.66,0,3.022,0.274,4.087,0.82
		c1.064,0.547,1.904,1.314,2.52,2.3c0.615,0.986,1.04,2.164,1.274,3.53c0.234,1.367,0.352,2.871,0.352,4.512v21.123h-4.336V41.793
		c0-1.348-0.068-2.529-0.205-3.545c-0.137-1.015-0.4-1.86-0.791-2.534s-0.938-1.182-1.641-1.523
		c-0.703-0.341-1.611-0.513-2.725-0.513c-1.016,0-1.938,0.225-2.769,0.674c-0.83,0.45-1.538,1.084-2.124,1.904
		s-1.04,1.816-1.362,2.988s-0.483,2.49-0.483,3.955v18.691h-4.336V18.414h4.336v11.309c0,0.645-0.01,1.289-0.029,1.934
		s-0.039,1.241-0.059,1.787c-0.02,0.547-0.039,1.011-0.059,1.392s-0.039,0.64-0.059,0.776H246.817z"/>
</g>
<g>
	<polygon points="30.831,43.27 55.603,63.011 55.603,43.27 	"/>
	<polygon points="55.603,41.77 55.603,22.028 30.831,41.77 	"/>
	<path d="M42.52,0C19.036,0,0,19.036,0,42.52s19.036,42.52,42.52,42.52s42.52-19.036,42.52-42.52S66.003,0,42.52,0z M57.103,66.125
		L28.958,43.695v21.949h-1.5v-46.25h1.5v21.949l28.145-22.429V66.125z"/>
</g>
<g>
</g>
<g>
</g>
<g>
</g>
<g>
</g>
<g>
</g>
<g>
</g>
</svg>
