<?xml version="1.0" encoding="utf-8"?>
<!-- Generator: Adobe Illustrator 16.0.3, SVG Export Plug-In . SVG Version: 6.00 Build 0)  -->
<!DOCTYPE svg PUBLIC "-//W3C//DTD SVG 1.0//EN" "http://www.w3.org/TR/2001/REC-SVG-20010904/DTD/svg10.dtd">
<svg version="1.0" id="Layer_1" xmlns="http://www.w3.org/2000/svg" xmlns:xlink="http://www.w3.org/1999/xlink" x="0px" y="0px"
	 width="135px" height="103.667px" viewBox="0 0 135 103.667" enable-background="new 0 0 135 103.667" xml:space="preserve">
<g>
	<path stroke="#FFFFFF" stroke-width="0.5" stroke-miterlimit="10" d="M61.05,82.383c-0.9-0.6-1.8-0.75-2.7-0.45
		c-1.001,0.199-2.152,0.45-3.45,0.75c-1.301,0.3-2.7,0.548-4.2,0.75c-2.902,0.499-5.85,0.649-8.85,0.45
		c-1.301-0.201-2.651-0.375-4.05-0.525c-1.401-0.15-2.801-0.326-4.2-0.525c-1.402-0.202-2.85-0.427-4.35-0.675
		c-1.5-0.251-3-0.476-4.5-0.675l-4.5-0.45c-0.701,0-1.35-0.026-1.95-0.075c-0.6-0.052-1.251-0.126-1.95-0.225
		c-0.101-0.501-0.126-0.952-0.075-1.35c0.049-0.4,0.075-0.851,0.075-1.35c0.098-3,0.499-5.949,1.2-8.85
		c0.199-1.298,0.549-2.599,1.05-3.9c0.499-1.299,0.999-2.648,1.5-4.05c0.098-0.698,0.349-1.399,0.75-2.1
		c0.098-0.398,0.225-0.773,0.375-1.125c0.15-0.349,0.323-0.675,0.525-0.975c0.3-0.799,0.574-1.523,0.825-2.175
		c0.248-0.649,0.574-1.324,0.975-2.025c1.399-2.899,2.85-5.674,4.35-8.325c1.5-2.648,3.099-5.175,4.8-7.575
		c1.699-2.4,3.323-4.599,4.875-6.6c1.549-1.999,3.023-3.75,4.425-5.25c1.298-1.599,2.4-2.874,3.3-3.825
		c0.9-0.949,1.5-1.575,1.8-1.875c0.3-0.398,0.6-0.724,0.9-0.975c0.3-0.249,0.548-0.525,0.75-0.825c0.398-0.3,0.9-0.75,1.5-1.35
		l1.35-1.35c0.199-0.199,0.398-0.375,0.6-0.525c0.199-0.15,0.398-0.323,0.6-0.525c0.199-0.199,0.398-0.375,0.6-0.525
		c0.199-0.15,0.45-0.324,0.75-0.525c0.5-0.5,0.9-0.849,1.2-1.05c0.499-0.398,0.975-0.773,1.425-1.125
		c0.45-0.349,0.923-0.773,1.425-1.275c0.398-0.3,0.75-0.6,1.05-0.9c0.3-0.3,0.6-0.6,0.9-0.9c0.3-0.3,0.548-0.6,0.75-0.9
		c0.199-0.3,0.398-0.548,0.6-0.75c0.799-1.099,1.2-1.999,1.2-2.7c0.199-0.799,0.124-1.399-0.225-1.8
		c-0.352-0.398-0.776-0.698-1.275-0.9c-0.9-0.3-2.1-0.098-3.6,0.6c-0.202,0.101-0.352,0.202-0.45,0.3
		c-0.101,0.101-0.25,0.202-0.45,0.3c-0.101,0.101-0.45,0.352-1.05,0.75c-0.401,0.3-1,0.851-1.8,1.65
		c-0.3,0.202-0.652,0.501-1.05,0.9l-0.6,0.6c-0.3,0.202-0.551,0.401-0.75,0.6c-0.202,0.202-0.401,0.401-0.6,0.6
		c-0.3,0.4-0.652,0.801-1.05,1.2c-0.4,0.401-0.851,0.9-1.35,1.5c-0.3,0.3-0.6,0.6-0.9,0.9c-0.3,0.3-0.651,0.701-1.05,1.2
		c-0.202,0.3-0.651,0.802-1.35,1.5c-0.202,0.202-0.426,0.45-0.675,0.75c-0.251,0.3-0.525,0.651-0.825,1.05
		c-0.202,0.3-0.426,0.626-0.675,0.975c-0.251,0.352-0.577,0.727-0.975,1.125c-0.3,0.401-0.626,0.825-0.975,1.275
		c-0.352,0.45-0.675,0.926-0.975,1.425c-0.201,0.202-0.4,0.426-0.6,0.675c-0.202,0.251-0.401,0.476-0.6,0.675
		c-0.3,0.6-0.701,1.15-1.2,1.65c-0.202,0.3-0.401,0.6-0.6,0.9c-0.201,0.3-0.4,0.6-0.6,0.9c-0.202,0.3-0.427,0.626-0.675,0.975
		c-0.25,0.352-0.476,0.675-0.675,0.975c-2.4,3.501-4.8,7.251-7.2,11.25c-1.2,2.001-2.4,4.05-3.6,6.15c-1.2,2.1-2.351,4.301-3.45,6.6
		c-0.701,1.2-1.251,2.351-1.65,3.45c-0.701,1.2-1.252,2.351-1.65,3.45c-0.3,0.6-0.6,1.2-0.9,1.8c-0.3,0.6-0.551,1.2-0.75,1.8
		c-0.3,0.6-0.6,1.2-0.9,1.8s-0.551,1.251-0.75,1.95c-0.501,1.301-1.001,2.576-1.5,3.825c-0.501,1.252-1.001,2.527-1.5,3.825
		c-0.501,1.399-0.952,2.775-1.35,4.125c-0.401,1.35-0.75,2.724-1.05,4.125c0,0.199-0.052,0.323-0.15,0.375
		c-0.101,0.049-0.15,0.124-0.15,0.225c-0.201,0.098-0.45,0.173-0.75,0.225c-0.3,0.049-0.551,0.124-0.75,0.225
		c-1.2,0.398-2.4,1.05-3.6,1.95l-0.15,0.15l-0.15,0.15l-0.3,0.3c-0.101,0.098-0.225,0.199-0.375,0.3
		c-0.15,0.099-0.277,0.249-0.375,0.45c-0.101,0.098-0.251,0.349-0.45,0.75c-0.202,0.199-0.3,0.45-0.3,0.75
		c-0.202,0.3-0.401,0.848-0.6,1.65c-0.101,0.3-0.15,0.799-0.15,1.5c0,0.999,0.249,1.898,0.75,2.7c0.199,0.3,0.45,0.548,0.75,0.75
		c0.3,0.199,0.548,0.398,0.75,0.6c0.499,0.099,1.148,0.15,1.95,0.15c1.2-0.101,2.049-0.352,2.55-0.75
		c0.499-0.202,0.923-0.427,1.275-0.675c0.349-0.25,0.773-0.577,1.275-0.975c0.199-0.3,0.424-0.625,0.675-0.975
		c0.248-0.352,0.525-0.727,0.825-1.125c0.099,0.098,0.3,0.15,0.6,0.15c0.499,0,0.999-0.126,1.5-0.375
		c0.499-0.251,0.9-0.525,1.2-0.825c0.499-0.202,0.848-0.551,1.05-1.05c0.099-0.202,0.173-0.427,0.225-0.675
		c0.049-0.25,0.124-0.476,0.225-0.675v-2.1c0.499,0.099,1.05,0.173,1.65,0.225c0.6,0.049,1.2,0.124,1.8,0.225
		c0.3,0,0.574,0.023,0.825,0.075c0.249,0.049,0.525,0.075,0.825,0.075c0.3,0.099,0.6,0.15,0.9,0.15c0.3,0,0.548,0.049,0.75,0.15
		c1.099,0.199,2.25,0.424,3.45,0.675c1.2,0.249,2.4,0.525,3.6,0.825c1.099,0.3,2.273,0.6,3.525,0.9c1.25,0.3,2.524,0.6,3.825,0.9
		c1.2,0.3,2.449,0.6,3.75,0.9c1.298,0.3,2.648,0.548,4.05,0.75c2.7,0.499,5.599,0.799,8.7,0.9c0.799,0,1.523-0.051,2.175-0.15
		c0.649-0.101,1.224-0.251,1.725-0.45c0.398-0.101,0.724-0.201,0.975-0.3c0.249-0.101,0.473-0.202,0.675-0.3
		c0.6-0.401,0.999-0.652,1.2-0.75c1.399-1.102,1.999-2.302,1.8-3.6C62.4,83.933,61.95,83.082,61.05,82.383z M8.625,87.633
		c-0.052,0.199-0.176,0.398-0.375,0.6c-0.101,0.199-0.202,0.349-0.3,0.45c-0.101,0.098-0.202,0.249-0.3,0.45
		c-0.3,0.3-0.6,0.549-0.9,0.75c-0.101,0-0.202,0.049-0.3,0.15H6.3l-0.15,0.15c-0.101,0-0.202,0.049-0.3,0.15H5.7
		c-0.101,0-0.15,0.049-0.15,0.15c-0.4,0.099-0.851,0.15-1.35,0.15c-0.202,0-0.3-0.051-0.3-0.15c-0.101,0-0.202-0.051-0.3-0.15
		c-0.202-0.501-0.251-1.102-0.15-1.8c0.199-0.802,0.398-1.35,0.6-1.65c0.199-0.3,0.424-0.576,0.675-0.825
		c0.249-0.251,0.473-0.476,0.675-0.675l0.9-0.45c0.199-0.202,0.35-0.3,0.45-0.3c0.398-0.101,0.649-0.201,0.75-0.3
		c0.199,0,0.349-0.026,0.45-0.075c0.098-0.051,0.248-0.075,0.45-0.075c0,0.999,0.15,1.95,0.45,2.85
		C8.749,87.233,8.674,87.432,8.625,87.633z"/>
	<path stroke="#FFFFFF" stroke-width="0.5" stroke-miterlimit="10" d="M26.85,76.684c0.5,0.499,1.299,0.6,2.4,0.3
		c0.698-0.202,1.148-0.401,1.35-0.6c0.099-0.101,0.15-0.176,0.15-0.225c0-0.052,0.049-0.127,0.15-0.225
		c0-0.101,0.023-0.176,0.075-0.225c0.049-0.052,0.075-0.126,0.075-0.225c0.099-0.101,0.15-0.3,0.15-0.6
		c0-0.201,0.049-0.352,0.15-0.45v-0.6c0-0.202,0.049-0.577,0.15-1.125c0.098-0.548,0.349-1.224,0.75-2.025
		c0.698-1.699,1.8-3.548,3.3-5.55c1.599-1.999,3.323-3.923,5.175-5.775c1.85-1.849,3.324-3.274,4.425-4.275
		c0.6-0.499,0.825-1.2,0.675-2.1s-0.525-1.749-1.125-2.55c-0.701-0.799-1.451-1.35-2.25-1.65c-1-0.3-1.95-0.15-2.85,0.45
		c-0.801,0.701-1.525,1.402-2.175,2.1c-0.651,0.701-1.226,1.451-1.725,2.25c-0.501,0.802-1,1.575-1.5,2.325
		c-0.501,0.75-1,1.575-1.5,2.475c-0.202,0.401-0.45,0.825-0.75,1.275c-0.3,0.45-0.551,0.926-0.75,1.425
		c-0.3,0.501-0.6,1.026-0.9,1.575c-0.3,0.551-0.6,1.125-0.9,1.725c-0.3,0.6-0.6,1.2-0.9,1.8c-0.3,0.6-0.6,1.301-0.9,2.1
		c-0.101,0.201-0.176,0.4-0.225,0.6c-0.052,0.202-0.127,0.401-0.225,0.6l-0.3,0.6c0,0.3-0.051,0.551-0.15,0.75
		c-0.202,0.701-0.401,1.65-0.6,2.85c0,0.199-0.025,0.349-0.075,0.45c-0.052,0.099-0.026,0.249,0.075,0.45v0.9
		C26.198,75.983,26.449,76.383,26.85,76.684z"/>
	<path stroke="#FFFFFF" stroke-width="0.5" stroke-miterlimit="10" d="M56.1,33.034c-0.201,0-0.476-0.023-0.825-0.075
		c-0.352-0.049-0.727,0.026-1.125,0.225c-0.9,0.401-1.702,1.05-2.4,1.95c-0.802,1.102-1.451,1.976-1.95,2.625
		c-0.501,0.652-0.9,1.226-1.2,1.725c-0.3,0.501-0.551,0.876-0.75,1.125c-0.201,0.251-0.4,0.577-0.6,0.975
		c-0.701,0.9-1.05,1.702-1.05,2.4c-0.202,0.3-0.202,0.6,0,0.9c0,0.202,0.099,0.3,0.3,0.3c0,0.101,0.098,0.15,0.3,0.15
		c0.6,0,1.05-0.049,1.35-0.15c0.199,0,0.349-0.049,0.45-0.15c0.099-0.099,0.249-0.199,0.45-0.3c0.3-0.3,0.574-0.649,0.825-1.05
		c0.248-0.398,0.525-0.75,0.825-1.05c0.199-0.499,0.574-1.05,1.125-1.65c0.548-0.6,1.523-1.549,2.925-2.85
		c0.698-0.6,1.2-1.174,1.5-1.725c0.3-0.549,0.548-1.074,0.75-1.575v-0.6c0-0.3-0.052-0.499-0.15-0.6
		C56.749,33.434,56.498,33.235,56.1,33.034z"/>
	<path stroke="#FFFFFF" stroke-width="0.5" stroke-miterlimit="10" d="M133.945,56.883c-0.501,0-1.102,0.45-1.8,1.35
		c-0.3,0.401-0.626,0.851-0.975,1.35c-0.352,0.501-0.776,1.05-1.275,1.65c-1.001,1.301-2.051,2.452-3.149,3.45
		c-1.001,1.102-2.101,2.1-3.301,3c-0.3,0.3-0.625,0.577-0.975,0.825c-0.352,0.251-0.775,0.525-1.275,0.825
		c-0.3,0.202-0.625,0.375-0.975,0.525c-0.352,0.15-0.727,0.326-1.125,0.525c-0.201-0.098-0.375-0.049-0.525,0.15
		c-0.149,0.201-0.325,0.3-0.524,0.3h-0.3h-0.301c-0.101,0-0.25,0.052-0.449,0.15c-0.202,0.101-0.352,0.15-0.45,0.15
		c-0.202,0.101-0.3,0.101-0.3,0c0-0.098-0.102-0.098-0.301,0c-0.201,0-0.352,0.052-0.449,0.15h-0.45h-0.45
		c-0.201,0.101-0.326,0.101-0.375,0c-0.052-0.099-0.127-0.15-0.225-0.15h-0.45c-0.202,0-0.352-0.049-0.45-0.15
		c-0.101-0.098-0.251-0.199-0.45-0.3h-0.149v-0.15h-0.15l-0.15-0.3c-0.201-0.398-0.3-0.75-0.3-1.05
		c-0.101-0.099-0.149-0.349-0.149-0.75v-0.75c0-0.5,0-0.949,0-1.35c0-0.398,0.049-0.799,0.149-1.2c0.099-0.098,0.15-0.199,0.15-0.3
		c0.199-0.6,0.398-1.05,0.6-1.35c0.099-0.199,0.15-0.323,0.15-0.375c0-0.049,0.049-0.173,0.149-0.375l0.301-0.3
		c0-0.199,0.049-0.3,0.149-0.3c0.099-0.199,0.174-0.323,0.226-0.375c0.049-0.049,0.124-0.173,0.225-0.375l0.3-0.6
		c0.3-0.3,0.549-0.649,0.75-1.05c0.199-0.3,0.499-0.649,0.9-1.05c0-0.099,0.023-0.15,0.075-0.15c0.049,0,0.074-0.049,0.074-0.15
		l0.45-0.45c1.599-1.298,3.398-2.199,5.4-2.7c0.998-0.098,1.95-0.098,2.85,0c0.9,0.202,1.351,0.45,1.351,0.75h0.3h0.3h0.15
		c0.199,0,0.398,0.052,0.6,0.15c0.099,0,0.199,0.026,0.3,0.075c0.099,0.052,0.199,0.075,0.3,0.075c0.199,0,0.324,0.025,0.375,0.075
		c0.05,0.052,0.174,0.075,0.375,0.075c0.601,0.202,1.1,0.352,1.5,0.45c1.2,0.3,2.199,0.202,3-0.3l0.45-0.45
		c0.199-0.199,0.35-0.398,0.45-0.6v-0.3v-0.45c0-0.398-0.052-0.699-0.15-0.9c-0.3-0.998-1.05-2.048-2.25-3.15
		c-1-0.698-2.151-1.148-3.449-1.35c-0.601-0.098-1.151-0.124-1.65-0.075c-0.502,0.051-1.001,0.126-1.5,0.225
		c-0.502,0.201-0.951,0.326-1.35,0.375c-0.401,0.051-0.802,0.176-1.2,0.375c-1.401,0.501-2.726,1.102-3.976,1.8
		c-1.251,0.701-2.426,1.601-3.524,2.7c-0.202,0.101-0.352,0.201-0.45,0.3c-0.101,0.101-0.251,0.202-0.45,0.3
		c-0.101,0.101-0.176,0.15-0.225,0.15c-0.052,0-0.127,0.051-0.226,0.15l-0.449,0.45c-0.202,0.101-0.502,0.352-0.9,0.75l-0.9,0.9
		c-0.101,0.101-0.176,0.201-0.225,0.3c-0.052,0.101-0.127,0.202-0.225,0.3c-0.301,0.3-0.45,0.502-0.45,0.6
		c-0.202,0.202-0.375,0.401-0.525,0.6c-0.149,0.202-0.325,0.401-0.524,0.6c-0.102,0.202-0.202,0.426-0.301,0.675
		c-0.101,0.251-0.25,0.525-0.449,0.825c-0.017,0.017-0.025,0.039-0.041,0.057c-0.038-0.017-0.07-0.041-0.109-0.057
		c-0.803-0.199-1.602-0.049-2.4,0.45c-0.801,0.3-1.602,0.851-2.4,1.65c-0.801,0.701-1.451,1.2-1.949,1.5
		c-0.201,0.201-0.451,0.426-0.75,0.675c-0.301,0.251-0.652,0.525-1.051,0.825c-0.4,0.3-0.824,0.625-1.275,0.975
		c-0.449,0.352-1.074,0.776-1.875,1.275c1.299-3.099,3.051-6.35,5.25-9.75c0.5-0.9,0.602-1.85,0.301-2.85
		c-0.4-0.799-1.102-1.549-2.1-2.25c-0.6-0.398-1.201-0.699-1.801-0.9c-0.4-0.999-1.049-1.85-1.949-2.55
		c-1.002-0.698-2.152-1.148-3.451-1.35c-0.6-0.098-1.15-0.124-1.648-0.075c-0.502,0.051-1.002,0.126-1.5,0.225
		c-0.502,0.201-0.953,0.326-1.352,0.375c-0.4,0.051-0.801,0.176-1.199,0.375c-2.902,0.9-5.4,2.4-7.5,4.5
		c-0.202,0.101-0.352,0.201-0.45,0.3c-0.101,0.101-0.251,0.202-0.45,0.3c-0.101,0.101-0.176,0.15-0.225,0.15
		c-0.051,0-0.126,0.051-0.225,0.15l-0.45,0.45c-0.202,0.101-0.501,0.352-0.9,0.75l-0.9,0.9l-0.6,0.6
		c-0.202,0.202-0.352,0.401-0.45,0.6c-0.202,0.202-0.501,0.6-0.9,1.2c-0.202,0.202-0.326,0.426-0.375,0.675
		c-0.052,0.251-0.176,0.525-0.375,0.825c-0.401,0.501-0.652,1.05-0.75,1.65c-0.101,0.202-0.15,0.352-0.15,0.45
		c0,0.101-0.052,0.25-0.15,0.45c0,0.101-0.025,0.176-0.075,0.225c-0.052,0.052-0.075,0.126-0.075,0.225
		c0,0.202-0.051,0.352-0.15,0.45c0,0.202-0.026,0.375-0.075,0.525c-0.051,0.15-0.075,0.326-0.075,0.525
		c0,0.401-0.052,0.701-0.15,0.9v1.05v0.45c0,0.034,0.01,0.059,0.013,0.09c-0.204,0.007-0.407,0.02-0.61,0.06
		c-0.502,0.202-0.975,0.375-1.425,0.525c-0.45,0.15-0.776,0.277-0.975,0.375l-0.6,0.3c-0.202,0.202-0.502,0.352-0.9,0.45
		c-0.201,0.101-0.375,0.176-0.525,0.225c-0.15,0.052-0.326,0.126-0.525,0.225c-0.3,0-0.551,0.101-0.75,0.3h-0.45
		c0,0.101-0.051,0.15-0.15,0.15h-0.15c-0.101,0.101-0.3,0.15-0.6,0.15h-0.45c-0.101-0.099-0.176-0.15-0.225-0.15
		c-0.052,0-0.126-0.099-0.225-0.3c0-0.199,0.049-0.349,0.15-0.45c0-0.199,0.023-0.324,0.075-0.375
		c0.049-0.049,0.075-0.125,0.075-0.225h0.15v-0.15l0.15-0.3l0.15-0.15c0.199-0.398,0.349-0.75,0.45-1.05
		c0.398-0.6,0.799-1.224,1.2-1.875c0.398-0.649,0.849-1.224,1.35-1.725c0.799-1.2,1.725-2.625,2.775-4.275
		c1.05-1.65,1.875-2.775,2.475-3.375c0.6-0.699,0.825-1.5,0.675-2.4c-0.15-0.9-0.525-1.748-1.125-2.55
		c-0.501-0.9-1.251-1.448-2.25-1.65c-1.2-0.199-2.25,0.101-3.15,0.9c-0.101,0-0.15,0.052-0.15,0.15h-0.15l-0.15,0.15l-0.15,0.15
		c-0.6,0.3-1,0.551-1.2,0.75c-0.401,0.3-0.802,0.651-1.2,1.05c-0.401,0.401-0.701,0.75-0.9,1.05c-0.202,0.202-0.401,0.401-0.6,0.6
		c-0.202,0.202-0.45,0.476-0.75,0.825c-0.3,0.352-0.675,0.801-1.125,1.35c-0.45,0.551-1.076,1.275-1.875,2.175
		c-0.801,1.001-1.676,1.976-2.625,2.925c-0.952,0.952-1.926,1.927-2.925,2.925c-0.401,0.401-0.75,0.75-1.05,1.05
		c-0.3,0.3-0.651,0.6-1.05,0.9c0.099-0.199,0.173-0.375,0.225-0.525c0.049-0.15,0.124-0.323,0.225-0.525
		c0.698-1.699,1.699-3.499,3-5.4c1.298-1.898,3.248-4.099,5.85-6.6c1.699-1.399,1.749-2.85,0.15-4.35
		c-0.802-0.799-1.65-0.9-2.55-0.3c-0.801,0.501-1.401,0.952-1.8,1.35c-0.401,0.6-1.301,1.601-2.7,3
		c-0.701,0.801-1.477,1.65-2.325,2.55c-0.851,0.9-1.725,1.901-2.625,3c-2.002,2.4-3.701,4.852-5.1,7.35
		c-1.399,2.602-2.199,5.001-2.4,7.2c-0.099,0.3-0.099,0.549,0,0.75c0,0.3,0.051,0.549,0.15,0.75c0.101,0.3,0.401,0.699,0.9,1.2
		c0.199,0.199,0.6,0.398,1.2,0.6c0.3,0.098,0.799,0.15,1.5,0.15c1.099-0.202,1.999-0.501,2.7-0.9
		c0.199-0.202,0.375-0.352,0.525-0.45c0.15-0.101,0.274-0.25,0.375-0.45c0.099,0,0.249-0.101,0.45-0.3l0.3-0.6
		c0-0.4,0.049-0.701,0.15-0.9c0.098-0.202,0.199-0.326,0.3-0.375c0.099-0.051,0.199-0.176,0.3-0.375
		c0.199-0.202,0.375-0.426,0.525-0.675c0.15-0.249,0.323-0.474,0.525-0.675l2.25-2.7c0.799-0.9,1.598-1.8,2.4-2.7
		c0.799-0.9,1.599-1.749,2.4-2.55c0.799-0.799,1.35-1.374,1.65-1.725c0.3-0.349,0.75-0.773,1.35-1.275
		c-0.202,0.401-0.401,0.825-0.6,1.275c-0.201,0.45-0.4,0.926-0.6,1.425c-0.101,0.202-0.15,0.352-0.15,0.45
		c0,0.101-0.051,0.251-0.15,0.45c0,0.101-0.026,0.176-0.075,0.225c-0.052,0.052-0.075,0.127-0.075,0.225
		c0,0.202-0.026,0.326-0.075,0.375c-0.051,0.052-0.075,0.126-0.075,0.225c-0.202,0.501-0.352,1.001-0.45,1.5
		c-0.101,0.501-0.202,1.001-0.3,1.5c-0.101,1.001-0.101,1.95,0,2.85c0.199,0.6,0.398,1.05,0.6,1.35
		c0.098,0.199,0.225,0.398,0.375,0.6c0.15,0.199,0.323,0.398,0.525,0.6c0.799,0.5,1.849,0.849,3.15,1.05
		c1.298,0,2.55-0.202,3.75-0.6c0.199-0.101,0.349-0.15,0.45-0.15c0.098,0,0.248-0.052,0.45-0.15c0.099,0,0.173-0.025,0.225-0.075
		c0.049-0.052,0.124-0.075,0.225-0.075c0.098,0,0.199-0.051,0.3-0.15c0.6-0.202,1.099-0.352,1.5-0.45c1.099-0.501,2.1-0.9,3-1.2
		c0.096-0.048,0.167-0.083,0.255-0.127c0.016,0.041,0.042,0.071,0.042,0.127l0.3,0.6c0.398,0.6,0.9,1.099,1.5,1.5
		c0.199,0.199,0.45,0.349,0.75,0.45c0.3,0.099,0.6,0.249,0.9,0.45c0.6,0.199,1.125,0.3,1.575,0.3s0.923,0,1.425,0
		c0.5-0.101,0.924-0.176,1.275-0.225c0.349-0.051,0.724-0.126,1.125-0.225c0.398-0.101,0.75-0.202,1.049-0.3
		c0.301-0.101,0.6-0.202,0.9-0.3c0.6-0.3,1.148-0.577,1.65-0.825c0.498-0.25,0.949-0.476,1.35-0.675
		c0.9-0.501,1.674-0.975,2.324-1.425c0.65-0.45,1.275-0.923,1.875-1.425c0.5-0.398,0.924-0.773,1.275-1.125
		c0.35-0.349,0.773-0.724,1.275-1.125c-0.102,0.202-0.176,0.45-0.225,0.75c-0.053,0.3-0.176,0.6-0.375,0.9
		c-0.201,0.501-0.375,1.027-0.525,1.575c-0.15,0.551-0.326,1.076-0.525,1.575c-0.502,0.398-1.025,0.773-1.574,1.125
		c-0.551,0.35-1.125,0.773-1.725,1.275c-1.201,0.799-2.426,1.624-3.676,2.475c-1.252,0.849-2.576,1.774-3.975,2.775
		c-0.701,0.499-1.35,0.998-1.95,1.5c-0.6,0.499-1.251,1.05-1.95,1.65c-0.701,0.6-1.375,1.223-2.025,1.875
		c-0.651,0.649-1.275,1.374-1.875,2.175c-0.3,0.398-0.6,0.799-0.9,1.2c-0.3,0.398-0.6,0.848-0.9,1.35
		c-0.202,0.499-0.401,1.024-0.6,1.575c-0.199,0.548-0.398,1.074-0.6,1.575c0,0.199-0.023,0.349-0.075,0.45
		c-0.049,0.099-0.075,0.249-0.075,0.45v0.9c-0.099,0.199-0.15,0.548-0.15,1.05c0.101,0.199,0.15,0.45,0.15,0.75v0.3v0.3l0.15,0.45
		v0.15v0.3l0.3,0.6c0,0.3,0.052,0.5,0.15,0.6c0.101,0.099,0.15,0.199,0.15,0.3c0,0.098,0.051,0.199,0.15,0.3l0.3,0.6l0.45,0.45
		c0.499,0.699,1.148,1.2,1.95,1.5c0.698,0.398,1.5,0.6,2.4,0.6c0.398,0.199,0.848,0.199,1.35,0h0.6l0.45-0.15
		c0.199,0,0.349-0.052,0.45-0.15l0.6-0.15c0.199,0,0.5-0.101,0.9-0.3c0.499-0.202,0.999-0.426,1.5-0.675
		c0.498-0.251,0.998-0.525,1.5-0.825c0.498-0.3,0.975-0.6,1.424-0.9c0.451-0.3,0.924-0.701,1.426-1.2
		c1.699-1.601,3.074-3.4,4.125-5.4c1.049-2.001,1.725-3.701,2.025-5.1c0.199-0.801,0.375-1.701,0.523-2.7
		c0.15-1.001,0.324-2.152,0.525-3.45c0.301-1.901,0.75-3.952,1.35-6.15c2-1.2,3.199-1.852,3.602-1.95
		c1.098-0.6,2.023-1.125,2.773-1.575c0.75-0.45,1.475-0.875,2.176-1.275c0.699-0.398,1.398-0.799,2.1-1.2
		c0.6-0.342,1.245-0.775,1.92-1.266c0.017,0.065,0.031,0.134,0.031,0.216c0,0.4,0.049,0.701,0.149,0.9v0.45l0.15,0.3v0.15
		c0.099,0.202,0.149,0.352,0.149,0.45c0,0.101,0.05,0.25,0.15,0.45c0.099,0.101,0.15,0.251,0.15,0.45l0.3,0.6
		c0.398,0.6,0.899,1.099,1.5,1.5c0.3,0.199,0.574,0.349,0.825,0.45c0.248,0.099,0.524,0.249,0.824,0.45
		c0.601,0.199,1.148,0.3,1.65,0.3c0.499,0,0.949,0,1.35,0c0.5-0.101,0.949-0.176,1.351-0.225c0.398-0.051,0.75-0.126,1.05-0.225
		c0.398-0.101,0.773-0.202,1.125-0.3c0.35-0.101,0.675-0.202,0.975-0.3c0.5-0.3,0.999-0.577,1.5-0.825
		c0.5-0.25,0.999-0.476,1.5-0.675c0.8-0.501,1.523-0.975,2.176-1.425c0.648-0.45,1.274-0.923,1.875-1.425
		c0.499-0.499,1.023-0.975,1.574-1.425c0.549-0.45,1.074-0.924,1.575-1.425c0.499-0.6,0.999-1.2,1.5-1.8
		c0.499-0.6,0.949-1.2,1.351-1.8c0.799-1.298,1.398-2.4,1.8-3.3c0.199-0.499,0.349-0.975,0.45-1.425
		c0.098-0.45,0.149-0.825,0.149-1.125C134.396,57.184,134.246,56.883,133.945,56.883z M88.945,81.108
		c-0.301,0.75-0.551,1.425-0.75,2.025c-0.301,0.799-0.576,1.475-0.824,2.025c-0.252,0.548-0.428,0.923-0.525,1.125
		c-0.301,0.698-0.576,1.249-0.826,1.65c-0.25,0.398-0.475,0.799-0.674,1.2c-0.502,1.1-1.125,2.175-1.875,3.225
		c-0.75,1.05-1.5,2-2.25,2.85c-0.75,0.849-1.402,1.549-1.95,2.1c-0.551,0.548-0.926,0.825-1.125,0.825l-0.6,0.3
		c-0.202,0.199-0.352,0.3-0.45,0.3c-0.6,0.199-0.951,0.3-1.05,0.3c-0.3,0.098-0.651,0.049-1.05-0.15c-0.502-0.201-0.802-0.4-0.9-0.6
		c-0.101-0.101-0.15-0.202-0.15-0.3c-0.101-0.101-0.15-0.202-0.15-0.3l-0.15-0.3c-0.101-0.101-0.15-0.201-0.15-0.3
		c-0.101-0.3-0.15-0.75-0.15-1.35c-0.201-0.501-0.201-1,0-1.5c0-0.401,0.099-0.9,0.3-1.5c0.398-1.102,0.848-2.051,1.35-2.85
		c0.6-0.801,1.298-1.575,2.1-2.325c0.799-0.75,1.599-1.477,2.4-2.175c1.598-1.301,3.249-2.5,4.95-3.6c1.898-1.2,3.699-2.25,5.4-3.15
		C89.545,79.534,89.246,80.358,88.945,81.108z M95.246,57.633c0,0.502,0,1.027,0,1.575c0,0.551-0.053,1.076-0.15,1.575
		c-0.201,0.201-0.301,0.352-0.301,0.45c-1,1.301-2.051,2.452-3.15,3.45c-1,1.102-2.1,2.1-3.299,3c-0.4,0.401-1.201,0.952-2.4,1.65
		c-0.301,0.202-0.6,0.375-0.9,0.525c-0.299,0.15-0.65,0.326-1.049,0.525c-0.203-0.098-0.502-0.15-0.9-0.15h-0.15h-0.301h-0.6
		c-0.201,0.101-0.352,0.15-0.449,0.15c-0.102,0-0.251,0.052-0.45,0.15c-0.3,0-0.45,0.051-0.45,0.15h-0.45h-0.6
		c-0.101,0.101-0.251,0.15-0.45,0.15h-0.6c-0.501,0-0.851-0.049-1.05-0.15h-0.15l-0.15-0.15l-0.15-0.3
		c-0.201-0.398-0.3-0.75-0.3-1.05c-0.101-0.099-0.15-0.349-0.15-0.75c0-0.199-0.026-0.324-0.075-0.375
		c-0.051-0.049-0.026-0.173,0.075-0.375c-0.101-0.699-0.052-1.549,0.15-2.55c0-0.098,0.049-0.199,0.15-0.3
		c0.199-0.6,0.398-1.05,0.6-1.35c0-0.098,0.099-0.349,0.3-0.75c0-0.098,0.023-0.15,0.075-0.15c0.049,0,0.075-0.049,0.075-0.15
		l0.3-0.3c0.099-0.199,0.15-0.323,0.15-0.375c0-0.049,0.049-0.173,0.15-0.375c0.199-0.199,0.35-0.398,0.45-0.6
		c0.3-0.3,0.548-0.649,0.75-1.05c0.199-0.199,0.349-0.375,0.45-0.525c0.098-0.15,0.199-0.323,0.3-0.525l0.3-0.3l0.45-0.45
		c1.4-1.298,3.199-2.199,5.4-2.7c0.998-0.098,1.898-0.098,2.699,0c1,0.202,1.5,0.45,1.5,0.75h0.301h0.15h0.299
		c0.199,0,0.35,0.052,0.451,0.15c0.199,0,0.322,0.026,0.375,0.075c0.049,0.052,0.174,0.075,0.375,0.075
		c0.098,0,0.199,0.025,0.299,0.075c0.1,0.052,0.199,0.075,0.301,0.075c0.301,0.101,0.574,0.176,0.824,0.225
		c0.25,0.051,0.525,0.126,0.826,0.225c0.098,0,0.199,0.052,0.299,0.15C95.295,57.134,95.246,57.333,95.246,57.633z"/>
</g>
<g>
</g>
<g>
</g>
<g>
</g>
<g>
</g>
<g>
</g>
<g>
</g>
</svg>
